<?xml version="1.0" encoding="UTF-8"?>
<svg width="541px" height="72px" viewBox="0 0 541 72" version="1.1" xmlns="http://www.w3.org/2000/svg" xmlns:xlink="http://www.w3.org/1999/xlink">
    <title>Shape</title>
    <g id="Page-1" stroke="none" stroke-width="1" fill="none" fill-rule="evenodd">
        <path d="M0,3.071 L0,70.194 L29.055,70.194 C45.165,70.194 54.322,63.865 54.322,50.968 C54.1999566,44.0776983 49.7103027,38.0274567 43.151,35.914 C49.0782793,33.7006908 52.9744194,28.0003893 52.884,21.674 C52.884,8.874 43.055,3.074 27.425,3.074 L0,3.071 Z M28.384,42.29 C35.768,42.29 40.418,44.016 40.418,50.297 C40.418,56.722 35.767,58.448 28.384,58.448 L13.377,58.4 L13.377,42.29 L28.384,42.29 Z M27.041,14.866 C33.657,14.866 38.931,16.304 38.931,22.633 C38.931,29.154 33.753,30.544 27.089,30.544 L13.377,30.544 L13.377,14.866 L27.041,14.866 Z M77.815,23.736 L65.306,23.736 L65.306,70.195 L77.815,70.195 L77.815,23.736 Z M71.486,0.482 C69.3534426,0.465661089 67.3048676,1.3122091 65.8059446,2.8292119 C64.3070215,4.3462147 63.4850949,6.4047918 63.527,8.537 C63.4892116,10.659217 64.3156064,12.7056498 65.8164783,14.2065217 C67.3173502,15.7073936 69.363783,16.5337884 71.486,16.496 C73.6131535,16.5356838 75.6655559,15.7114769 77.1744582,14.21162 C78.6833605,12.7117632 79.5198931,10.6643537 79.493,8.537 C79.5237611,6.39974032 78.6916164,4.34032662 77.1847126,2.82438927 C75.6778087,1.30845193 73.6234054,0.464013406 71.486,0.482 L71.486,0.482 Z M111.568,22.489 C97.668,22.489 88.075,32.462 88.075,47.089 C88.075,61.716 97.952,71.397 112.191,71.397 C120.006,71.397 126.718,69.192 131.991,64.349 L124.655,56.294 C121.367068,59.0814674 117.220512,60.6533739 112.911,60.746 C107.011,60.746 102.311,57.821 100.973,51.109 L133.911,51.109 C134.073835,49.7086046 134.153974,48.2998276 134.15108,46.89 C134.106,32.414 124.945,22.489 111.569,22.489 L111.568,22.489 Z M111.468,33.277 C116.838,33.277 120.434,36.633 121.584,42.577 L101.021,42.577 C102.123,36.825 105.576,33.277 111.473,33.277 L111.468,33.277 Z M170.206,22.489 C164.932,22.489 159.85,24.263 156.542,29.201 L156.542,23.735 L144.363,23.735 L144.363,70.194 L156.877,70.194 L156.877,44.736 C156.877,37.736 161.336,34.236 166.706,34.236 C172.412,34.236 175.768,37.928 175.768,44.636 L175.768,70.191 L188.282,70.191 L188.282,40.612 C188.281,29.825 180.754,22.489 170.206,22.489 Z M245.097,23.736 L231.911,23.736 L219.781,57.01 L207.747,23.735 L194.13,23.735 L212.493,70.194 L226.925,70.194 L245.097,23.736 Z M271.806,22.489 C257.906,22.489 248.313,32.462 248.313,47.089 C248.313,61.716 258.19,71.397 272.429,71.397 C280.244,71.397 286.956,69.192 292.229,64.349 L284.893,56.294 C281.603744,59.0825388 277.455239,60.6545147 273.144,60.746 C267.244,60.746 262.544,57.821 261.206,51.109 L294.144,51.109 C294.306851,49.708606 294.38699,48.299828 294.384081,46.89 C294.336,32.414 285.179,22.489 271.806,22.489 Z M271.706,33.277 C277.076,33.277 280.672,36.633 281.822,42.577 L261.254,42.577 C262.357,36.825 265.806,33.277 271.706,33.277 Z M330.439,22.489 C325.165,22.489 320.083,24.263 316.775,29.201 L316.775,23.735 L304.596,23.735 L304.596,70.194 L317.106,70.194 L317.106,44.736 C317.106,37.736 321.565,34.236 326.935,34.236 C332.641,34.236 335.997,37.928 335.997,44.636 L335.997,70.191 L348.511001,70.191 L348.511001,40.612 C348.514,29.825 340.987,22.489 330.439,22.489 Z M404.85,23.736 L392.384,23.736 L392.384,49.291 C392.384,56.723 388.261,59.743 382.891,59.743 C377.473,59.743 373.398,56.722 373.398,49.291 L373.398,23.735 L360.884,23.735 L360.884,50.393 C360.884,65.064 371.24,71.393 382.891,71.393 C394.491,71.393 404.85,65.064 404.85,50.393 L404.85,23.736 Z M438.22,22.489 C424.32,22.489 414.727,32.462 414.727,47.089 C414.727,61.716 424.604,71.397 438.843,71.397 C446.658,71.397 453.37,69.192 458.643,64.349 L451.306,56.29 C448.018616,59.0789122 443.872004,60.6522521 439.562,60.746 C433.662,60.746 428.962,57.821 427.624,51.109 L460.562,51.109 C460.724835,49.7086046 460.804974,48.2998276 460.80208,46.89 C460.754,32.414 451.597,22.489 438.22,22.489 Z M438.12,33.277 C443.49,33.277 447.086,36.633 448.236,42.577 L427.672,42.577 C428.775,36.825 432.227,33.277 438.124,33.277 L438.12,33.277 Z M540.483,23.736 L528.261,23.736 L528.261,28.866 C524.898498,24.6596685 519.74261,22.2942655 514.361,22.489 C501.561,22.489 491.875,32.989 491.875,46.941 C491.875,60.893 501.56,71.393 514.361,71.393 C520.738,71.393 525.245,68.804 528.261,65.064 L528.261,70.194 L540.487,70.194 L540.483,23.736 Z M516.654,34.136 C523.798,34.136 528.64,39.602 528.64,46.936 C528.64,54.27 523.806,59.746 516.658,59.746 C509.322,59.746 504.672,54.041 504.672,46.946 C504.672,39.851 509.323,34.14 516.658,34.14 L516.654,34.136 Z M513.969,17.067 L525.907,17.067 L516.27,1.967 L501.316,1.967 L513.969,17.067 Z" id="Shape" fill="#000000" fill-rule="nonzero"></path>
    </g>
</svg>