<?xml version="1.0" encoding="UTF-8"?>
<svg width="118px" height="99px" viewBox="0 0 118 99" version="1.1" xmlns="http://www.w3.org/2000/svg" xmlns:xlink="http://www.w3.org/1999/xlink">
    <title>Binche-Logo</title>
    <g id="Page-1" stroke="none" stroke-width="1" fill="none" fill-rule="evenodd">
        <g id="Binche-Logo">
            <path d="M0,0 L40.3887928,0.00442471284 C63.407091,0.00442471284 77.8822576,8.55886954 77.8822576,27.4376443 C78.0154182,36.7684629 72.2775734,45.1758621 63.5484702,48.4402813 C73.2083542,51.5574276 79.8202667,60.4809549 80,70.6434903 C80,89.4751124 66.7828494,98.8123379 43.4979741,98.9971992 L42.7892935,99 L0,99 L0,0 Z M20,81.928704 L42.1988832,82 C53.1200769,82 60,79.4363164 60,69.8930561 C60,60.5636836 53.1215562,58 42.1988832,58 L33,58 L33,41 L40.390389,41 C50.3000704,41 58,38.9608368 58,29.3943743 C58,20.3230238 50.5137526,18.1007841 40.9942795,18.0034061 L40.6574627,18.0008438 L20,18 L20,81.928704 Z" id="Combined-Shape" fill="#000000" fill-rule="nonzero"></path>
            <circle id="Oval" fill="#EA5B0C" cx="104" cy="85" r="14"></circle>
        </g>
    </g>
</svg>