<?xml version="1.0" encoding="UTF-8"?>
<svg width="46px" height="90px" viewBox="0 0 46 90" version="1.1" xmlns="http://www.w3.org/2000/svg" xmlns:xlink="http://www.w3.org/1999/xlink">
    <title>Group 2</title>
    <g id="Page-1" stroke="none" stroke-width="1" fill="none" fill-rule="evenodd">
        <g id="Group-2" transform="translate(0.287000, 0.072000)" fill-rule="nonzero">
            <path d="M21.688,44.931 L19.888,44.931 L19.888,42.631 L20.788,41 L21.688,42.631 L21.688,44.931 Z M18.51,51.871 L16.085,51.871 L16.085,48.484 L17.3,46.284 L18.51,48.484 L18.51,51.871 Z M11.064,40.445 L11.064,53.377 L24.148,53.377 L24.148,43.789 L25.178,43.789 L25.178,41.647 L26.537,41.647 L26.537,40.447 L11.064,40.445 Z" id="Shape" fill="#888086"></path>
            <path d="M2.84217094e-13,68.94 L2.84217094e-13,88.198 L12.725,88.198 L12.725,82.011 C12.725,79.034 15.225,76.835 17.3,75.886 C19.38,76.835 21.875,79.034 21.875,82.011 L21.875,88.198 L23.117,88.198 L23.117,82.011 C23.117,79.034 25.617,76.835 27.692,75.886 C29.772,76.835 32.267,79.034 32.267,82.011 L32.267,88.198 L33.411,88.198 L33.411,82.011 C33.411,79.034 35.911,76.835 37.986,75.886 C40.066,76.835 42.561,79.034 42.561,82.011 L42.561,88.198 L44.295,88.198 L44.295,68.94 L2.84217094e-13,68.94 Z" id="Path" fill="#C2B4A7"></path>
            <path d="M5.541,30.9710002 C4.20128762,30.9715518 3.11473723,29.8860454 3.11400082,28.5463331 C3.11326515,27.2066208 4.19862212,26.1199211 5.5383343,26.1190002 C6.87804648,26.1180805 7.96489542,27.203288 7.966,28.543 C7.966,29.8827767 6.88077565,30.9693446 5.541,30.9710002 M3.007,31.077 L8.074,31.077 L8.074,26.01 L3.007,26.01 L3.007,31.077 Z" id="Shape" fill="#FCC971"></path>
            <rect id="Rectangle" fill="#603728" x="4.739" y="37.33" width="1.604" height="2.892"></rect>
            <rect id="Rectangle" fill="#603728" x="4.739" y="45.36" width="1.604" height="2.89"></rect>
            <path d="M33.601,42.631 L34.501,41 L35.401,42.631 L35.401,44.931 L33.601,44.931 L33.601,42.631 Z M36.779,48.487 L37.989,46.287 L39.204,48.487 L39.204,51.871 L36.779,51.871 L36.779,48.487 Z M43.863,53.38 L40.024,40.448 L28.843,40.448 L28.843,41.648 L30.201,41.648 L30.201,43.79 L31.231,43.79 L31.231,53.378 L43.863,53.38 Z" id="Shape" fill="#888086"></path>
            <path d="M40.581,67.203 L38.292,67.203 L38.292,57.716 L40.581,57.716 L40.581,67.203 Z M37.689,67.203 L35.4,67.203 L35.4,57.716 L37.689,57.716 L37.689,67.203 Z M30.284,67.203 L27.995,67.203 L27.995,57.716 L30.284,57.716 L30.284,67.203 Z M27.995,46.222 L29.93,46.222 L29.93,52.222 L27.995,52.222 L27.995,46.222 Z M27.395,52.222 L25.459,52.222 L25.459,46.222 L27.395,46.222 L27.395,52.222 Z M27.395,67.206 L25.106,67.206 L25.106,57.719 L27.395,57.719 L27.395,67.206 Z M19.895,67.206 L17.606,67.206 L17.606,57.719 L19.895,57.719 L19.895,67.206 Z M17.003,67.206 L14.714,67.206 L14.714,57.719 L17.003,57.719 L17.003,67.206 Z M8.078,31.081 L3.011,31.081 L3.011,26.014 L8.078,26.014 L8.078,31.081 Z M6.344,40.226 L4.744,40.226 L4.744,37.334 L6.344,37.334 L6.344,40.226 Z M6.344,48.254 L4.744,48.254 L4.744,45.364 L6.344,45.364 L6.344,48.254 Z M31.244,54.088 L31.244,43.789 L30.214,43.789 L30.214,41.646 L28.855,41.646 L28.855,39.566 L27.702,39.071 L26.552,39.566 L26.552,41.646 L25.193,41.646 L25.193,43.788 L24.163,43.788 L24.163,54.083 L11.068,54.083 L11.068,21.136 L3.37507799e-13,21.136 L3.37507799e-13,68.252 L44.3,68.252 L44.3,54.083 L31.244,54.088 Z" id="Shape" fill="#C2B4A7"></path>
            <rect id="Rectangle" fill="#603728" x="11.067" y="53.396" width="13.084" height="1"></rect>
            <polygon id="Path" fill="#888086" points="8.488 17.494 8.488 17.516 2.588 17.516 2.588 17.497 2.83328916e-13 21.14 11.079 21.14"></polygon>
            <polygon id="Path" fill="#B8B4B7" points="5.54 16.238 2.59 16.238 2.59 17.516 8.49 17.516 8.49 16.238"></polygon>
            <polygon id="Path" fill="#766E72" points="8.42 15.013 2.554 15.013 1.225 16.239 9.856 16.239 8.42 14.913"></polygon>
            <polygon id="Path" fill="#B8B4B7" points="5.54 13.995 2.52 13.995 2.52 15.012 8.42 15.012 8.42 13.995"></polygon>
            <polygon id="Path" fill="#766E72" points="5.541 12.157 3.217 12.157 1.224 13.995 9.858 13.995 7.865 12.157"></polygon>
            <path d="M5.541,8.723 C5.10913248,8.7207462 4.68403322,8.61549985 4.301,8.416 L3.211,12.156 L7.862,12.156 L6.775,8.416 C6.39407124,8.61537282 5.97094264,8.72064063 5.541,8.723" id="Path" fill="#888086"></path>
            <path d="M5.541,5.978 L2.795,5.978 C2.795,7.4937455 4.0237545,8.7225 5.5395,8.7225 C7.0552455,8.7225 8.284,7.4937455 8.284,5.978 L5.541,5.978 Z" id="Path" fill="#766E72"></path>
            <path d="M7.756,4.363 C7.014,3.297 5.614,1.123 5.614,0 L5.464,0 C5.464,1.122 4.002,3.286 3.322,4.363 C2.97885723,4.83148921 2.79422873,5.39728621 2.79499759,5.978 L8.28605166,5.978 C8.28961364,5.39636224 8.10355014,4.82939516 7.756,4.363" id="Path" fill="#888086"></path>
            <path d="M5.538,30.0690013 C4.92150922,30.0698089 4.36525349,29.6991198 4.12867858,29.1298273 C3.89210366,28.5605349 4.02181333,27.9047863 4.45730911,27.4684321 C4.89280489,27.0320779 5.54829684,26.9010772 6.118054,27.1365307 C6.68781116,27.3719841 7.05959495,27.9275088 7.06000034,28.544 C7.06055275,29.3852919 6.37929138,30.0678961 5.538,30.0690013 M5.538,26.1189998 C4.55659271,26.1185955 3.67161498,26.7095232 3.29585981,27.616148 C2.92010464,28.5227727 3.12759935,29.566481 3.82155915,30.2604408 C4.51551896,30.9544007 5.55922726,31.1618954 6.46585204,30.7861402 C7.37247682,30.410385 7.96340445,29.5254073 7.96300021,28.544 C7.96326541,27.9007687 7.70786031,27.2838062 7.25302704,26.828973 C6.79819378,26.3741397 6.18123132,26.1187346 5.538,26.1189998" id="Shape" fill="#9A6350"></path>
            <path d="M5.541,27.0209997 C6.38323424,27.0209997 7.066,27.7037658 7.066,28.546 C7.066,29.3882342 6.38323424,30.071 5.541,30.071 C4.69876576,30.071 4.01599967,29.3882342 4.01599967,28.546 C4.01573447,28.1414635 4.17631838,27.7534195 4.46236894,27.4673689 C4.74841949,27.1813184 5.13646351,27.0207345 5.541,27.0209997" id="Path" fill="#E9E9E9"></path>
            <polygon id="Path" fill="#C2B4A7" points="43.786 50.874 43.786 49.274 43.31 49.274 43.31 47.836 42.837 47.836 42.837 46.346 42.337 46.346 42.337 44.911 41.981 44.911 41.981 43.644 41.535 43.644 41.535 42.154 41.146 42.154 41.146 40.917 40.616 40.917 40.616 37.339 38.689 37.339 38.689 40.446 40.023 40.446 43.862 53.378 43.577 53.378 43.582 53.397 44.297 53.397 44.297 50.874"></polygon>
            <rect id="Rectangle" fill="#603728" x="31.235" y="53.396" width="13.062" height="1"></rect>
            <rect id="Rectangle" fill="#3D3732" x="14.71" y="57.715" width="2.286" height="9.487"></rect>
            <rect id="Rectangle" fill="#3D3732" x="17.602" y="57.715" width="2.286" height="9.487"></rect>
            <rect id="Rectangle" fill="#3D3732" x="25.1" y="57.715" width="2.289" height="9.487"></rect>
            <rect id="Rectangle" fill="#3D3732" x="27.995" y="57.715" width="2.289" height="9.487"></rect>
            <rect id="Rectangle" fill="#3D3732" x="35.397" y="57.715" width="2.286" height="9.487"></rect>
            <rect id="Rectangle" fill="#3D3732" x="38.29" y="57.715" width="2.289" height="9.487"></rect>
            <path d="M25.456,52.222 L27.392,52.222 L27.392,46.222 L25.456,46.222 L25.456,52.222 Z M27.995,52.222 L29.93,52.222 L29.93,46.222 L27.995,46.222 L27.995,52.222 Z M38.29,67.206 L40.579,67.206 L40.579,57.716 L38.29,57.716 L38.29,67.206 Z M35.398,67.206 L37.687,67.206 L37.687,57.716 L35.397,57.716 L35.398,67.206 Z M27.998,67.206 L30.287,67.206 L30.287,57.716 L27.998,57.716 L27.998,67.206 Z M25.105,67.206 L27.394,67.206 L27.394,57.716 L25.105,57.716 L25.105,67.206 Z M17.605,67.206 L19.894,67.206 L19.894,57.716 L17.605,57.716 L17.605,67.206 Z M14.713,57.719 L17.002,57.719 L17.002,67.206 L14.713,67.206 L14.713,57.719 Z" id="Shape" fill="#3D3732"></path>
            <rect id="Rectangle" fill="#603728" x="5.68434189e-14" y="68.252" width="44.295" height="1"></rect>
            <path d="M17.298,75.886 C15.221,76.835 12.726,79.037 12.726,82.014 L12.726,88.201 L21.876,88.201 L21.876,82.014 C21.876,79.037 19.376,76.835 17.298,75.886 M27.698,75.886 C25.618,76.835 23.123,79.037 23.123,82.014 L23.123,88.201 L32.273,88.201 L32.273,82.014 C32.273,79.037 29.773,76.835 27.698,75.886 M37.993,75.886 C40.073,76.835 42.568,79.037 42.568,82.014 L42.568,88.201 L33.413,88.201 L33.413,82.014 C33.413,79.037 35.913,76.835 37.988,75.886" id="Shape" fill="#864335"></path>
            <path d="M19.891,44.932 L21.691,44.932 L21.691,42.632 L19.891,42.632 L19.891,44.932 Z M16.091,48.485 L18.516,48.485 L18.516,51.872 L16.088,51.872 L16.091,48.485 Z" id="Shape" fill="#603728"></path>
            <path d="M20.791,41.001 L19.891,42.632 L21.691,42.632 L20.791,41.001 Z M18.513,48.488 L16.088,48.488 L17.3,46.288 L18.513,48.488 Z" id="Shape" fill="#B8B4B7"></path>
            <path d="M33.601,44.932 L35.401,44.932 L35.401,42.632 L33.601,42.632 L33.601,44.932 Z M36.776,48.485 L39.201,48.485 L39.201,51.872 L36.776,51.872 L36.776,48.485 Z" id="Shape" fill="#603728"></path>
            <path d="M37.989,46.284 L36.777,48.484 L39.202,48.484 L37.989,46.284 Z M35.398,42.628 L33.598,42.628 L34.498,40.997 L35.398,42.628 Z" id="Shape" fill="#B8B4B7"></path>
        </g>
    </g>
</svg>