<?xml version="1.0" encoding="UTF-8"?>
<svg width="21px" height="21px" viewBox="0 0 21 21" version="1.1" xmlns="http://www.w3.org/2000/svg" xmlns:xlink="http://www.w3.org/1999/xlink">
    <title>Combined Shape</title>
    <g id="Page-1" stroke="none" stroke-width="1" fill="none" fill-rule="evenodd">
        <path d="M9.193,-2.57571742e-13 C14.2685538,0.00386036749 18.3821396,4.11744617 18.386,9.193 C18.386,11.4264198 17.5895487,13.4738184 16.2651718,15.06667 L20.626,19.427 C20.9573708,19.7583708 20.9573708,20.2956292 20.626,20.627 C20.2946292,20.9583708 19.7573708,20.9583708 19.426,20.627 L19.426,20.627 L15.0646531,16.2668483 C13.4720902,17.5902208 11.4254772,18.386 9.193,18.386 C4.11584629,18.386 -1.77635684e-15,14.2701537 -1.77635684e-15,9.193 C-1.77635684e-15,4.11584629 4.11584629,-2.57571742e-13 9.193,-2.57571742e-13 Z M9.193,1.689 C5.05086438,1.689 1.693,5.04686438 1.693,9.189 C1.693,13.3311356 5.05086438,16.689 9.193,16.689 C13.3351356,16.689 16.693,13.3311356 16.693,9.189 C16.693,5.04686438 13.3351356,1.689 9.193,1.689 Z" id="Combined-Shape" fill="#000000" fill-rule="nonzero"></path>
    </g>
</svg>